<svg xmlns="http://www.w3.org/2000/svg" width="340" height="200" viewBox="0 0 340 200"><style>* {
          font-family: Ubuntu, 'Lucida Grande', Arial, Helvetica, sans-serif
        }</style><rect x="1.5" y="1.5" rx="5" ry="5" height="98%" width="98%" stroke="#e5e9f0" stroke-width="1" fill="#eceff4" stroke-opacity="1"></rect><text x="30" y="40" style="font-size: 22px; fill: #3b4252;">Top Languages by Commit</text><g transform="translate(0,40)"><g transform="translate(40,0)"><rect y="18" width="14" height="14" fill="#b07219" stroke="#eceff4" style="stroke-width: 1px;"></rect><rect y="43.2" width="14" height="14" fill="#00ADD8" stroke="#eceff4" style="stroke-width: 1px;"></rect><rect y="68.4" width="14" height="14" fill="#199f4b" stroke="#eceff4" style="stroke-width: 1px;"></rect><rect y="93.60000000000002" width="14" height="14" fill="#384d54" stroke="#eceff4" style="stroke-width: 1px;"></rect><text x="16.8" y="30" style="fill: #2e3440; font-size: 14px;">Java</text><text x="16.8" y="55.2" style="fill: #2e3440; font-size: 14px;">Go</text><text x="16.8" y="80.4" style="fill: #2e3440; font-size: 14px;">Vim script</text><text x="16.8" y="105.60000000000002" style="fill: #2e3440; font-size: 14px;">Dockerfile</text></g><g transform="translate( 230, 80 )"><g class="arc"><path d="M3.67394039744206e-15,-60A60,60,0,1,1,-23.904065390774498,55.032678090327174L-13.944038144618457,32.10239555269085A35,35,0,1,0,2.1431318985078682e-15,-35Z" style="fill: #b07219; stroke-width: 2px;" stroke="#eceff4"></path></g><g class="arc"><path d="M-23.904065390774498,55.032678090327174A60,60,0,0,1,-30.090947233887245,-51.908909587540116L-17.553052553100894,-30.2801972593984A35,35,0,0,0,-13.944038144618457,32.10239555269085Z" style="fill: #00ADD8; stroke-width: 2px;" stroke="#eceff4"></path></g><g class="arc"><path d="M-30.090947233887245,-51.908909587540116A60,60,0,0,1,-11.280031846177083,-58.93013559758055L-6.580018576936633,-34.37591243192199A35,35,0,0,0,-17.553052553100894,-30.2801972593984Z" style="fill: #199f4b; stroke-width: 2px;" stroke="#eceff4"></path></g><g class="arc"><path d="M-11.280031846177083,-58.93013559758055A60,60,0,0,1,-1.1021821192326178e-14,-60L-6.429395695523604e-15,-35A35,35,0,0,0,-6.580018576936633,-34.37591243192199Z" style="fill: #384d54; stroke-width: 2px;" stroke="#eceff4"></path></g></g></g></svg>